<svg width="40" height="40" viewBox="0 0 40 40" fill="none" xmlns="http://www.w3.org/2000/svg">
<path fill-rule="evenodd" clip-rule="evenodd" d="M32.5 2.5V7.5H37.5V10.8333H32.5V15.8167C32.5 15.8167 29.1833 15.8333 29.1666 15.8167V10.8333H24.1666C24.1666 10.8333 24.1833 7.51667 24.1666 7.5H29.1666V2.5H32.5ZM29.1667 34.1667H5.83333V10.8333H20.8333V7.5H5.83333C4 7.5 2.5 9 2.5 10.8333V34.1667C2.5 36 4 37.5 5.83333 37.5H29.1667C31 37.5 32.5 36 32.5 34.1667V19.1667H29.1667V34.1667ZM16.1834 28.8833L12.9167 24.95L8.33335 30.8333H26.6667L20.7667 22.9833L16.1834 28.8833Z" fill="#ABFFE6"/>
</svg>
