<svg width="24" height="24" viewBox="0 0 24 24" fill="none" xmlns="http://www.w3.org/2000/svg">
<g clip-path="url(#clip0)">
<path d="M7.07807 23.55C6.60507 23.234 6.18507 22.847 5.83407 22.4C5.45107 21.937 5.09607 21.45 4.77007 20.946C4.00407 19.826 3.40507 18.601 2.99007 17.31C2.49007 15.808 2.24707 14.37 2.24707 12.963C2.24707 11.393 2.58707 10.023 3.24907 8.873C3.73907 7.973 4.46907 7.22 5.34907 6.691C6.19907 6.161 7.18907 5.871 8.18907 5.851C8.53907 5.851 8.91907 5.901 9.31907 6.001C9.60907 6.081 9.95907 6.211 10.3891 6.371C10.9391 6.581 11.2391 6.711 11.3391 6.741C11.6591 6.861 11.9291 6.911 12.1391 6.911C12.2991 6.911 12.5291 6.861 12.7841 6.781C12.9291 6.731 13.2041 6.641 13.5941 6.471C13.9801 6.331 14.2861 6.211 14.5291 6.121C14.8991 6.011 15.2571 5.911 15.5791 5.861C15.9691 5.801 16.3561 5.781 16.7271 5.811C17.4371 5.861 18.0871 6.011 18.6671 6.231C19.6871 6.641 20.5101 7.281 21.1241 8.191C20.8641 8.351 20.6241 8.537 20.3991 8.741C19.9121 9.171 19.4991 9.681 19.1691 10.246C18.7391 11.016 18.5191 11.886 18.5251 12.766C18.5401 13.849 18.8151 14.801 19.3651 15.626C19.7521 16.226 20.2691 16.74 20.8991 17.162C21.2091 17.372 21.4811 17.517 21.7391 17.612C21.6191 17.987 21.4871 18.352 21.3341 18.712C20.9871 19.519 20.5741 20.292 20.0841 21.022C19.6521 21.652 19.3121 22.122 19.0541 22.432C18.6521 22.912 18.2641 23.272 17.8741 23.529C17.4441 23.814 16.9391 23.965 16.4221 23.965C16.0721 23.98 15.7221 23.935 15.3881 23.838C15.0981 23.743 14.8121 23.636 14.5321 23.515C14.2391 23.381 13.9361 23.267 13.6271 23.175C13.2471 23.075 12.8571 23.027 12.4631 23.028C12.0631 23.028 11.6731 23.078 11.3031 23.173C10.9931 23.261 10.6931 23.369 10.3961 23.498C9.97607 23.673 9.70107 23.788 9.54107 23.838C9.21707 23.934 8.88507 23.992 8.55107 24.013C8.03107 24.013 7.54707 23.863 7.06507 23.563L7.07807 23.55ZM13.9321 5.09C13.2521 5.43 12.6061 5.574 11.9591 5.526C11.8591 4.88 11.9591 4.216 12.2291 3.489C12.4691 2.869 12.7891 2.309 13.2291 1.809C13.6891 1.289 14.2391 0.859001 14.8591 0.549001C15.5191 0.209001 16.1491 0.0290005 16.7491 -0.000999451C16.8291 0.679001 16.7491 1.349 16.4991 2.069C16.2711 2.709 15.9311 3.299 15.4991 3.829C15.0641 4.349 14.5241 4.779 13.9131 5.089L13.9321 5.09Z" fill="white"/>
</g>
<defs>
<clipPath id="clip0">
<rect width="24" height="24" fill="white"/>
</clipPath>
</defs>
</svg>
