<svg width="50" height="55" viewBox="0 0 50 55" fill="none" xmlns="http://www.w3.org/2000/svg">
<path fill-rule="evenodd" clip-rule="evenodd" d="M30.01 32.676C38.6039 32.6795 45.5638 39.6418 45.5638 48.2299V51.429C43.487 52.7063 41.0455 53.4417 38.4323 53.4417H11.1315C8.5193 53.4417 6.07685 52.7063 4 51.429V48.2299C4 39.6418 10.9608 32.6795 19.5539 32.676H30.01Z" fill="#3AA3FF"/>
<path fill-rule="evenodd" clip-rule="evenodd" d="M21.2487 53.4417H15.3937C13.5306 47.2799 12.1625 42.0083 12.1625 42.0083L14.7191 40.0956L12.4114 38.6193L13.6555 33.5699L16.6082 32.676L21.2487 53.4417Z" fill="url(#paint0_linear)"/>
<path fill-rule="evenodd" clip-rule="evenodd" d="M28.6451 53.4417L33.2856 32.676L36.2383 33.5699L37.4824 38.6193L35.1747 40.0956L37.7313 42.0083C37.7313 42.0083 36.3632 47.2799 34.5001 53.4417H28.6451Z" fill="url(#paint1_linear)"/>
<path fill-rule="evenodd" clip-rule="evenodd" d="M7.81586 18.3498V3L18.1451 13.8645L7.81586 18.3498Z" fill="url(#paint2_linear)"/>
<path fill-rule="evenodd" clip-rule="evenodd" d="M19.4512 53.4428L15.4547 39.0117L13.8549 31.5706L35.7093 34.1449L29.5686 53.4428H19.4512Z" fill="white"/>
<path fill-rule="evenodd" clip-rule="evenodd" d="M41.8636 18.3498V3L31.5344 13.8645L41.8636 18.3498Z" fill="url(#paint3_linear)"/>
<path fill-rule="evenodd" clip-rule="evenodd" d="M39.2438 14.8112C40.9218 15.833 42.042 17.6795 42.042 19.7876V29.427C42.042 32.6427 39.4352 35.2496 36.2202 35.2496H13.3445C10.1287 35.2496 7.52191 32.6427 7.52191 29.427V19.7876C7.52191 17.6375 8.68726 15.7597 10.4208 14.7512L7.81565 3L18.1449 13.9004L17.9952 13.965H31.6829L31.5338 13.9004L41.8624 3L39.2438 14.8112Z" fill="url(#paint4_linear)"/>
<path fill-rule="evenodd" clip-rule="evenodd" d="M24.0957 30.2677C24.2895 30.4078 24.5565 30.4869 24.8355 30.4869C25.1144 30.4869 25.3814 30.4078 25.5752 30.2677C25.7366 30.151 25.9166 30.0209 26.1075 29.8829C26.5996 29.5271 26.7394 29.0002 26.4627 28.5448C26.1858 28.0893 25.546 27.7936 24.8375 27.7936C24.8361 27.7936 24.8348 27.7936 24.8336 27.7936C24.1251 27.7936 23.4852 28.0893 23.2084 28.5448C22.9315 29.0002 23.0715 29.5271 23.5636 29.8829C23.7543 30.0209 23.9345 30.151 24.0957 30.2677Z" fill="url(#paint5_linear)"/>
<path fill-rule="evenodd" clip-rule="evenodd" d="M24.7826 40.028L14.478 35.1612H35.0869L24.7826 40.028Z" fill="#5E3300"/>
<path fill-rule="evenodd" clip-rule="evenodd" d="M22.1149 38.1542C22.9836 38.4129 23.5791 39.2116 23.5791 40.118C23.5791 41.0244 22.9836 41.8231 22.1149 42.0818C19.9397 42.7295 17.7286 43.3879 16.3575 43.7962C16.087 43.8767 15.794 43.8081 15.5874 43.6158C15.3807 43.4236 15.2911 43.1363 15.352 42.8607C15.5793 41.9767 15.8211 40.8504 15.8211 40.118C15.8211 39.3856 15.5793 38.2593 15.3558 37.3744C15.2952 37.1002 15.3843 36.8143 15.59 36.623C15.7956 36.4317 16.0872 36.3634 16.3564 36.4436C17.7286 36.8481 19.9397 37.5065 22.1149 38.1542Z" fill="url(#paint6_linear)"/>
<path fill-rule="evenodd" clip-rule="evenodd" d="M27.4498 38.1542C26.5812 38.4129 25.9857 39.2116 25.9857 40.118C25.9857 41.0244 26.5812 41.8231 27.4498 42.0818C29.625 42.7295 31.8361 43.3879 33.2073 43.7962C33.4778 43.8767 33.7707 43.8081 33.9774 43.6158C34.1841 43.4236 34.2736 43.1363 34.2128 42.8607C33.9854 41.9767 33.7436 40.8504 33.7436 40.118C33.7436 39.3856 33.9854 38.2593 34.209 37.3744C34.2696 37.1002 34.1804 36.8143 33.9748 36.623C33.7692 36.4317 33.4776 36.3634 33.2084 36.4436C31.8361 36.8481 29.625 37.5065 27.4498 38.1542Z" fill="url(#paint7_linear)"/>
<path fill-rule="evenodd" clip-rule="evenodd" d="M27.0205 39.3756C27.0205 38.7819 26.7847 38.2126 26.3649 37.793C25.9452 37.3732 25.3759 37.1374 24.7823 37.1374C24.7823 37.1374 24.7823 37.1374 24.7823 37.1374C24.1887 37.1374 23.6194 37.3732 23.1996 37.793C22.7799 38.2126 22.5441 38.7819 22.5441 39.3756C22.5441 39.8609 22.5441 40.3743 22.5441 40.8596C22.5441 41.4532 22.7799 42.0225 23.1996 42.4422C23.6194 42.862 24.1887 43.0978 24.7823 43.0978C24.7823 43.0978 24.7823 43.0978 24.7823 43.0978C25.3759 43.0978 25.9452 42.862 26.3649 42.4422C26.7847 42.0225 27.0205 41.4532 27.0205 40.8596C27.0205 40.3743 27.0205 39.8609 27.0205 39.3756Z" fill="#C82C2C"/>
<path d="M24.7819 46.3072C25.0758 46.3072 25.314 46.069 25.314 45.7751C25.314 45.4813 25.0758 45.243 24.7819 45.243C24.488 45.243 24.2498 45.4813 24.2498 45.7751C24.2498 46.069 24.488 46.3072 24.7819 46.3072Z" fill="#414141"/>
<path d="M24.7819 51.2544C25.0758 51.2544 25.314 51.0161 25.314 50.7223C25.314 50.4284 25.0758 50.1902 24.7819 50.1902C24.488 50.1902 24.2498 50.4284 24.2498 50.7223C24.2498 51.0161 24.488 51.2544 24.7819 51.2544Z" fill="#414141"/>
<path fill-rule="evenodd" clip-rule="evenodd" d="M12.8263 31.9035C11.7764 31.9035 10.8552 32.6028 10.573 33.614C10.5728 33.6141 10.5728 33.6144 10.5727 33.6147C10.5374 33.7412 10.4534 33.8483 10.3391 33.9128C10.2247 33.9772 10.0894 33.9936 9.96312 33.9583C9.89 33.9378 9.81318 33.9165 9.73635 33.895C9.54999 33.8429 9.39194 33.719 9.29691 33.5504C9.20188 33.382 9.17783 33.1825 9.22976 32.9962C9.37031 32.4928 9.53491 31.9035 9.53491 31.9035H8.61192C8.41845 31.9035 8.23293 31.8266 8.09608 31.6899C7.95937 31.5531 7.8824 31.3676 7.8824 31.1741C7.8824 31.0978 7.8824 31.0217 7.8824 30.9489C7.8824 30.6699 8.1086 30.4437 8.38757 30.4437C8.38786 30.4437 8.38814 30.4437 8.38842 30.4437C9.307 30.4437 10.1132 29.8319 10.3602 28.947C10.5252 28.3558 10.7232 27.6466 10.9234 26.9293C11.1775 26.0191 10.9911 25.0423 10.4198 24.2896C9.84831 23.5369 8.95762 23.0948 8.01258 23.0948C7.71155 23.0948 7.52191 23.0948 7.52191 23.0948V21.6351H12.4013C12.4013 21.6351 12.6814 20.6311 12.8812 19.9161C12.9894 19.528 13.3918 19.3013 13.7798 19.4095C13.8534 19.4301 13.9269 19.4506 13.9974 19.4703C14.1262 19.5063 14.2355 19.5919 14.3012 19.7086C14.3668 19.8251 14.3836 19.9629 14.3476 20.0918C14.3476 20.0919 14.3475 20.0922 14.3475 20.0924C14.2452 20.4586 14.3201 20.8515 14.55 21.1543C14.7799 21.4572 15.1383 21.6351 15.5184 21.6351C16.8779 21.6351 18.8362 21.6351 20.3071 21.6351C21.5116 21.6351 22.5687 20.8326 22.8927 19.6724C22.8927 19.6723 22.8927 19.672 22.8927 19.6719C22.9267 19.5504 23.0075 19.4472 23.1176 19.3852C23.2275 19.3232 23.3576 19.3075 23.4792 19.3414C23.5577 19.3633 23.641 19.3866 23.724 19.4098C23.9104 19.4617 24.0684 19.5858 24.1635 19.7542C24.2585 19.9228 24.2826 20.1222 24.2306 20.3085C24.0669 20.8949 23.8603 21.6351 23.8603 21.6351H25.704C25.704 21.6351 25.4975 20.8949 25.3337 20.3085C25.2255 19.9205 25.4522 19.5181 25.8403 19.4098C25.9234 19.3866 26.0066 19.3633 26.0851 19.3414C26.2068 19.3075 26.3368 19.3232 26.4469 19.3852C26.5569 19.4472 26.6377 19.5504 26.6717 19.6719C26.6717 19.672 26.6717 19.6723 26.6717 19.6724C26.9956 20.8326 28.0528 21.6351 29.2573 21.6351C30.7281 21.6351 32.6865 21.6351 34.0459 21.6351C34.4261 21.6351 34.7844 21.4572 35.0143 21.1543C35.2442 20.8515 35.3192 20.4586 35.2169 20.0924C35.2169 20.0922 35.2167 20.0919 35.2167 20.0918C35.1808 19.9629 35.1975 19.8251 35.2631 19.7086C35.3288 19.5919 35.4381 19.5063 35.567 19.4703C35.6374 19.4506 35.711 19.4301 35.7845 19.4095C36.1726 19.3013 36.5749 19.528 36.6833 19.9161C36.8829 20.6311 37.1632 21.6351 37.1632 21.6351H42.0424V23.0948H41.5518C40.6067 23.0948 39.716 23.5369 39.1447 24.2896C38.5733 25.0423 38.3869 26.0191 38.641 26.9293C38.8413 27.6466 39.0392 28.3558 39.2042 28.947C39.4511 29.8319 40.2573 30.4437 41.1759 30.4437C41.1762 30.4437 41.1765 30.4437 41.1768 30.4437C41.4558 30.4437 41.6819 30.6699 41.6819 30.9489C41.6819 31.0217 41.6819 31.0978 41.6819 31.1741C41.6819 31.3676 41.605 31.5531 41.4683 31.6899C41.3314 31.8266 41.1459 31.9035 40.9524 31.9035C40.5097 31.9035 40.0296 31.9035 40.0296 31.9035C40.0296 31.9035 40.194 32.4928 40.3346 32.9962C40.3865 33.1825 40.3625 33.382 40.2674 33.5504C40.1724 33.719 40.0144 33.8429 39.828 33.895C39.7512 33.9165 39.6744 33.9378 39.6012 33.9583C39.4749 33.9936 39.3396 33.9772 39.2252 33.9128C39.111 33.8483 39.0269 33.7412 38.9916 33.6147C38.9915 33.6144 38.9915 33.6141 38.9914 33.614C38.7091 32.6028 37.788 31.9035 36.7381 31.9035C35.1486 31.9035 32.8534 31.9035 31.4169 31.9035C31.101 31.9035 30.8032 32.0513 30.6122 32.3029C30.4213 32.5546 30.359 32.8811 30.4439 33.1854C30.4439 33.1857 30.444 33.1858 30.444 33.1861C30.482 33.3221 30.4644 33.4675 30.3951 33.5905C30.3258 33.7136 30.2104 33.8041 30.0744 33.8419C30.0123 33.8593 29.9481 33.8772 29.8838 33.8951C29.6974 33.9472 29.4981 33.923 29.3296 33.8281C29.161 33.7331 29.0371 33.575 28.985 33.3887C28.8065 32.7489 28.5704 31.9035 28.5704 31.9035L28.163 30.4437C28.163 30.4437 27.0568 26.4807 26.469 24.3751C26.2577 23.6183 25.568 23.0948 24.7822 23.0948C23.9963 23.0948 23.3066 23.6183 23.0954 24.3751C22.5076 26.4807 21.4013 30.4437 21.4013 30.4437L20.9939 31.9035C20.9939 31.9035 20.7579 32.7489 20.5794 33.3887C20.5273 33.575 20.4034 33.7331 20.2348 33.8281C20.0662 33.923 19.8669 33.9472 19.6805 33.8951C19.6162 33.8772 19.5521 33.8593 19.4899 33.8419C19.3539 33.8041 19.2385 33.7136 19.1693 33.5905C19.1 33.4675 19.0823 33.3221 19.1203 33.1861C19.1203 33.1858 19.1205 33.1857 19.1205 33.1854C19.2054 32.8811 19.1431 32.5546 18.9522 32.3029C18.7611 32.0513 18.4634 31.9035 18.1474 31.9035C16.711 31.9035 14.4157 31.9035 12.8263 31.9035ZM31.1468 23.0948C30.3113 23.0948 29.5239 23.4856 29.0187 24.1511C28.5135 24.8166 28.3488 25.6801 28.5734 26.4849C28.5939 26.5583 28.6145 26.6318 28.635 26.7055C29.2519 28.9154 31.2653 30.4437 33.5597 30.4437C33.56 30.4437 33.5601 30.4437 33.5604 30.4437C34.6394 30.4437 35.6565 29.939 36.309 29.0794C36.9616 28.2197 37.1743 27.1044 36.8842 26.0651C36.8024 25.7723 36.7224 25.4856 36.6463 25.2131C36.2968 23.9609 35.1559 23.0948 33.8557 23.0948C33.0281 23.0948 32.0648 23.0948 31.1468 23.0948ZM16.0047 30.4437C18.2991 30.4437 20.3125 28.9154 20.9293 26.7055C20.9499 26.6318 20.9704 26.5583 20.9909 26.4849C21.2155 25.6801 21.0508 24.8166 20.5456 24.1511C20.0405 23.4856 19.2531 23.0948 18.4176 23.0948H15.7086C14.4085 23.0948 13.2676 23.9609 12.918 25.2131C12.8419 25.4856 12.762 25.7723 12.6802 26.0651C12.3901 27.1044 12.6029 28.2197 13.2553 29.0794C13.9079 29.939 14.9249 30.4437 16.004 30.4437C16.0042 30.4437 16.0044 30.4437 16.0047 30.4437Z" fill="#D88334"/>
<path fill-rule="evenodd" clip-rule="evenodd" d="M36.8762 20.9395L27.2318 21.5965L29.5368 29.9607L38.6557 29.4791L36.8762 20.9395Z" fill="url(#paint8_linear)"/>
<path fill-rule="evenodd" clip-rule="evenodd" d="M12.5303 20.9395L22.1746 21.5965L19.8697 29.9607L10.7508 29.4791L12.5303 20.9395Z" fill="url(#paint9_linear)"/>
<path d="M32.9427 28.7961C34.7913 28.7961 36.2899 27.2976 36.2899 25.449C36.2899 23.6004 34.7913 22.1018 32.9427 22.1018C31.0941 22.1018 29.5955 23.6004 29.5955 25.449C29.5955 27.2976 31.0941 28.7961 32.9427 28.7961Z" fill="url(#paint10_linear)"/>
<path d="M16.4835 28.7961C18.332 28.7961 19.8306 27.2976 19.8306 25.449C19.8306 23.6004 18.332 22.1018 16.4835 22.1018C14.6349 22.1018 13.1363 23.6004 13.1363 25.449C13.1363 27.2976 14.6349 28.7961 16.4835 28.7961Z" fill="url(#paint11_linear)"/>
<path d="M32.9425 27.7775C34.2287 27.7775 35.2713 26.7349 35.2713 25.4488C35.2713 24.1626 34.2287 23.12 32.9425 23.12C31.6564 23.12 30.6138 24.1626 30.6138 25.4488C30.6138 26.7349 31.6564 27.7775 32.9425 27.7775Z" fill="#54769E"/>
<path d="M16.4624 27.7775C17.7486 27.7775 18.7912 26.7349 18.7912 25.4488C18.7912 24.1626 17.7486 23.12 16.4624 23.12C15.1763 23.12 14.1337 24.1626 14.1337 25.4488C14.1337 26.7349 15.1763 27.7775 16.4624 27.7775Z" fill="#54769E"/>
<path fill-rule="evenodd" clip-rule="evenodd" d="M12.8263 30.7781C11.7764 30.7781 10.8552 31.4774 10.573 32.4886C10.5728 32.4888 10.5728 32.489 10.5727 32.4893C10.5374 32.6158 10.4534 32.7229 10.3391 32.7874C10.2247 32.8518 10.0894 32.8682 9.96312 32.8329C9.89 32.8124 9.81318 32.7911 9.73635 32.7696C9.54999 32.7175 9.39194 32.5936 9.29691 32.425C9.20188 32.2566 9.17783 32.0571 9.22976 31.8708C9.37031 31.3674 9.53491 30.7781 9.53491 30.7781H8.61192C8.41845 30.7781 8.23293 30.7012 8.09608 30.5645C7.95937 30.4277 7.8824 30.2422 7.8824 30.0487C7.8824 29.9724 7.8824 29.8963 7.8824 29.8235C7.8824 29.5445 8.1086 29.3183 8.38757 29.3183C8.38786 29.3183 8.38814 29.3183 8.38842 29.3183C9.307 29.3183 10.1132 28.7065 10.3602 27.8216C10.5252 27.2304 10.7232 26.5212 10.9234 25.8039C11.1775 24.8937 10.9911 23.9169 10.4198 23.1642C9.84831 22.4115 8.95762 21.9694 8.01258 21.9694C7.71155 21.9694 7.52191 21.9694 7.52191 21.9694V20.5097H12.4013C12.4013 20.5097 12.6814 19.5057 12.8812 18.7907C12.9894 18.4026 13.3918 18.1759 13.7798 18.2841C13.8534 18.3048 13.9269 18.3252 13.9974 18.3449C14.1262 18.3809 14.2355 18.4665 14.3012 18.5832C14.3668 18.6997 14.3836 18.8375 14.3476 18.9664C14.3476 18.9665 14.3475 18.9668 14.3475 18.967C14.2452 19.3332 14.3201 19.7261 14.55 20.029C14.7799 20.3318 15.1383 20.5097 15.5184 20.5097C16.8779 20.5097 18.8362 20.5097 20.3071 20.5097C21.5116 20.5097 22.5687 19.7072 22.8927 18.547C22.8927 18.5469 22.8927 18.5466 22.8927 18.5465C22.9267 18.425 23.0075 18.3218 23.1176 18.2598C23.2275 18.1978 23.3576 18.1821 23.4792 18.216C23.5577 18.2379 23.641 18.2612 23.724 18.2844C23.9104 18.3363 24.0684 18.4604 24.1635 18.6288C24.2585 18.7974 24.2826 18.9968 24.2306 19.1831C24.0669 19.7695 23.8603 20.5097 23.8603 20.5097H25.704C25.704 20.5097 25.4975 19.7695 25.3337 19.1831C25.2255 18.7951 25.4522 18.3927 25.8403 18.2844C25.9234 18.2612 26.0066 18.2379 26.0851 18.216C26.2068 18.1821 26.3368 18.1978 26.4469 18.2598C26.5569 18.3218 26.6377 18.425 26.6717 18.5465C26.6717 18.5466 26.6717 18.5469 26.6717 18.547C26.9956 19.7072 28.0528 20.5097 29.2573 20.5097C30.7281 20.5097 32.6865 20.5097 34.0459 20.5097C34.4261 20.5097 34.7844 20.3318 35.0143 20.029C35.2442 19.7261 35.3192 19.3332 35.2169 18.967C35.2169 18.9668 35.2167 18.9665 35.2167 18.9664C35.1808 18.8375 35.1975 18.6997 35.2631 18.5832C35.3288 18.4665 35.4381 18.3809 35.567 18.3449C35.6374 18.3252 35.711 18.3048 35.7845 18.2841C36.1726 18.1759 36.5749 18.4026 36.6833 18.7907C36.8829 19.5057 37.1632 20.5097 37.1632 20.5097H42.0424V21.9694H41.5518C40.6067 21.9694 39.716 22.4115 39.1447 23.1642C38.5733 23.9169 38.3869 24.8937 38.641 25.8039C38.8413 26.5212 39.0392 27.2304 39.2042 27.8216C39.4511 28.7065 40.2573 29.3183 41.1759 29.3183C41.1762 29.3183 41.1765 29.3183 41.1768 29.3183C41.4558 29.3183 41.6819 29.5445 41.6819 29.8235C41.6819 29.8963 41.6819 29.9724 41.6819 30.0487C41.6819 30.2422 41.605 30.4277 41.4683 30.5645C41.3314 30.7012 41.1459 30.7781 40.9524 30.7781C40.5097 30.7781 40.0296 30.7781 40.0296 30.7781C40.0296 30.7781 40.194 31.3674 40.3346 31.8708C40.3865 32.0571 40.3625 32.2566 40.2674 32.425C40.1724 32.5936 40.0144 32.7175 39.828 32.7696C39.7512 32.7911 39.6744 32.8124 39.6012 32.8329C39.4749 32.8682 39.3396 32.8518 39.2252 32.7874C39.111 32.7229 39.0269 32.6158 38.9916 32.4893C38.9915 32.489 38.9915 32.4888 38.9914 32.4886C38.7091 31.4774 37.788 30.7781 36.7381 30.7781C35.1486 30.7781 32.8534 30.7781 31.4169 30.7781C31.101 30.7781 30.8032 30.9259 30.6122 31.1775C30.4213 31.4292 30.359 31.7557 30.4439 32.06C30.4439 32.0603 30.444 32.0604 30.444 32.0607C30.482 32.1967 30.4644 32.3421 30.3951 32.4651C30.3258 32.5882 30.2104 32.6787 30.0744 32.7165C30.0123 32.7339 29.9481 32.7518 29.8838 32.7697C29.6974 32.8218 29.4981 32.7976 29.3296 32.7027C29.161 32.6077 29.0371 32.4496 28.985 32.2633C28.8065 31.6235 28.5704 30.7781 28.5704 30.7781L28.163 29.3183C28.163 29.3183 27.0568 25.3554 26.469 23.2497C26.2577 22.4929 25.568 21.9694 24.7822 21.9694C23.9963 21.9694 23.3066 22.4929 23.0954 23.2497C22.5076 25.3554 21.4013 29.3183 21.4013 29.3183L20.9939 30.7781C20.9939 30.7781 20.7579 31.6235 20.5794 32.2633C20.5273 32.4496 20.4034 32.6077 20.2348 32.7027C20.0662 32.7976 19.8669 32.8218 19.6805 32.7697C19.6162 32.7518 19.5521 32.7339 19.4899 32.7165C19.3539 32.6787 19.2385 32.5882 19.1693 32.4651C19.1 32.3421 19.0823 32.1967 19.1203 32.0607C19.1203 32.0604 19.1205 32.0603 19.1205 32.06C19.2054 31.7557 19.1431 31.4292 18.9522 31.1775C18.7611 30.9259 18.4634 30.7781 18.1474 30.7781C16.711 30.7781 14.4157 30.7781 12.8263 30.7781ZM31.1468 21.9694C30.3113 21.9694 29.5239 22.3602 29.0187 23.0257C28.5135 23.6912 28.3488 24.5547 28.5734 25.3595C28.5939 25.4329 28.6145 25.5064 28.635 25.5801C29.2519 27.79 31.2653 29.3183 33.5597 29.3183C33.56 29.3183 33.5601 29.3183 33.5604 29.3183C34.6394 29.3183 35.6565 28.8136 36.309 27.954C36.9616 27.0944 37.1743 25.979 36.8842 24.9397C36.8024 24.6469 36.7224 24.3602 36.6463 24.0877C36.2968 22.8355 35.1559 21.9694 33.8557 21.9694C33.0281 21.9694 32.0648 21.9694 31.1468 21.9694ZM16.0047 29.3183C18.2991 29.3183 20.3125 27.79 20.9293 25.5801C20.9499 25.5064 20.9704 25.4329 20.9909 25.3595C21.2155 24.5547 21.0508 23.6912 20.5456 23.0257C20.0405 22.3602 19.2531 21.9694 18.4176 21.9694C17.4995 21.9694 16.5363 21.9694 15.7086 21.9694C14.4085 21.9694 13.2676 22.8355 12.918 24.0877C12.8419 24.3602 12.762 24.6469 12.6802 24.9397C12.3901 25.979 12.6029 27.0944 13.2553 27.954C13.9079 28.8136 14.9249 29.3183 16.004 29.3183C16.0042 29.3183 16.0044 29.3183 16.0047 29.3183Z" fill="#27547B"/>
<path d="M34.5848 24.3534C34.8394 24.3534 35.0458 24.147 35.0458 23.8925C35.0458 23.6379 34.8394 23.4315 34.5848 23.4315C34.3303 23.4315 34.1239 23.6379 34.1239 23.8925C34.1239 24.147 34.3303 24.3534 34.5848 24.3534Z" fill="white"/>
<path d="M18.104 24.3534C18.3586 24.3534 18.5649 24.147 18.5649 23.8925C18.5649 23.6379 18.3586 23.4315 18.104 23.4315C17.8494 23.4315 17.6431 23.6379 17.6431 23.8925C17.6431 24.147 17.8494 24.3534 18.104 24.3534Z" fill="white"/>
<path d="M22.5198 32.5118C22.5198 32.5118 23.4931 33.2546 24.8098 33.2546C26.1266 33.2546 27.1622 32.5118 27.1622 32.5118" stroke="#90581B" stroke-width="1.81768" stroke-miterlimit="1.5" stroke-linecap="round" stroke-linejoin="round"/>
<defs>
<linearGradient id="paint0_linear" x1="24.841" y1="33.2533" x2="24.841" y2="56.999" gradientUnits="userSpaceOnUse">
<stop stop-color="#1A76C7"/>
<stop offset="1" stop-color="#004581"/>
</linearGradient>
<linearGradient id="paint1_linear" x1="24.8408" y1="33.2533" x2="24.8408" y2="56.999" gradientUnits="userSpaceOnUse">
<stop stop-color="#1A76C7"/>
<stop offset="1" stop-color="#004581"/>
</linearGradient>
<linearGradient id="paint2_linear" x1="24.7824" y1="2.43605" x2="24.8413" y2="17.8575" gradientUnits="userSpaceOnUse">
<stop stop-color="#F66354"/>
<stop offset="0.64" stop-color="#F15747"/>
<stop offset="0.83" stop-color="#E43826"/>
<stop offset="1" stop-color="#D51400"/>
</linearGradient>
<linearGradient id="paint3_linear" x1="24.7831" y1="2.43605" x2="24.842" y2="17.8575" gradientUnits="userSpaceOnUse">
<stop stop-color="#F66354"/>
<stop offset="0.64" stop-color="#F15747"/>
<stop offset="0.83" stop-color="#E43826"/>
<stop offset="1" stop-color="#D51400"/>
</linearGradient>
<linearGradient id="paint4_linear" x1="24.7822" y1="13.5607" x2="24.7822" y2="35.1598" gradientUnits="userSpaceOnUse">
<stop stop-color="#FAD14A"/>
<stop offset="1" stop-color="#FF8F29"/>
</linearGradient>
<linearGradient id="paint5_linear" x1="24.7484" y1="27.7689" x2="24.7484" y2="30.4856" gradientUnits="userSpaceOnUse">
<stop stop-color="#F66354"/>
<stop offset="1" stop-color="#D51400"/>
</linearGradient>
<linearGradient id="paint6_linear" x1="24.7822" y1="37.596" x2="24.8411" y2="44.1899" gradientUnits="userSpaceOnUse">
<stop stop-color="#F66354"/>
<stop offset="1" stop-color="#D51400"/>
</linearGradient>
<linearGradient id="paint7_linear" x1="24.7826" y1="37.596" x2="24.8415" y2="44.1899" gradientUnits="userSpaceOnUse">
<stop stop-color="#F66354"/>
<stop offset="1" stop-color="#D51400"/>
</linearGradient>
<linearGradient id="paint8_linear" x1="31.0191" y1="21.316" x2="32.4156" y2="29.9607" gradientUnits="userSpaceOnUse">
<stop stop-color="#5E93CF"/>
<stop offset="1" stop-color="#FFCF92"/>
</linearGradient>
<linearGradient id="paint9_linear" x1="18.3874" y1="21.316" x2="16.9908" y2="29.9607" gradientUnits="userSpaceOnUse">
<stop stop-color="#5E93CF"/>
<stop offset="1" stop-color="#FFCF92"/>
</linearGradient>
<linearGradient id="paint10_linear" x1="32.9427" y1="22.1019" x2="32.9427" y2="28.7961" gradientUnits="userSpaceOnUse">
<stop stop-color="#66A2C1"/>
<stop offset="1" stop-color="#FFF489"/>
</linearGradient>
<linearGradient id="paint11_linear" x1="16.4835" y1="22.1019" x2="16.4835" y2="28.7961" gradientUnits="userSpaceOnUse">
<stop stop-color="#66A2C1"/>
<stop offset="1" stop-color="#FFF489"/>
</linearGradient>
</defs>
</svg>
