<svg width="37" height="37" viewBox="0 0 37 37" fill="none" xmlns="http://www.w3.org/2000/svg">
<path fill-rule="evenodd" clip-rule="evenodd" d="M7.36408 3.45752C7.36408 1.54799 8.91206 0 10.8216 0C12.7311 0 14.2791 1.54799 14.2791 3.45752V7.36408H22.7209V3.45752C22.7209 1.54799 24.2689 0 26.1784 0C28.0879 0 29.6359 1.54799 29.6359 3.45752V7.36408H33.5425C35.452 7.36408 37 8.91206 37 10.8216C37 12.7311 35.452 14.2791 33.5425 14.2791H29.6359V22.7209H33.5425C35.452 22.7209 37 24.2689 37 26.1784C37 28.0879 35.452 29.6359 33.5425 29.6359H29.6359V33.5425C29.6359 35.452 28.0879 37 26.1784 37C24.2689 37 22.7209 35.452 22.7209 33.5425V29.6359L14.2791 29.6359V33.5425C14.2791 35.452 12.7311 37 10.8216 37C8.91206 37 7.36408 35.452 7.36408 33.5425V29.6359H3.45752C1.54799 29.6359 0 28.0879 0 26.1784C0 24.2689 1.54799 22.7209 3.45752 22.7209H7.36408V14.2791H3.45752C1.54799 14.2791 0 12.7311 0 10.8216C0 8.91206 1.54799 7.36408 3.45752 7.36408H7.36408V3.45752ZM18.5546 14.9867C18.4778 15.0657 18.3995 15.1464 18.3188 15.2281C18.2411 15.1546 18.1655 15.0824 18.0916 15.0117C17.2298 14.1881 16.5811 13.568 15.1905 13.5497C13.5006 13.5289 12.0315 14.6875 12.098 16.496C12.1781 18.668 14.2336 20.4876 15.9378 21.9962C16.2592 22.2807 16.568 22.5541 16.8488 22.8168L18.3199 24.192L20.0999 22.4769C20.3413 22.2443 20.6209 21.9842 20.92 21.7059C21.4296 21.2318 21.9959 20.7051 22.5264 20.1716C23.2936 19.4005 23.9872 18.6145 24.3279 17.9537C25.5248 15.6335 23.3448 13.2765 20.9745 13.5408C19.8365 13.6671 19.2579 14.2626 18.5546 14.9867Z" fill="url(#paint0_linear)"/>
<defs>
<linearGradient id="paint0_linear" x1="34.8654" y1="32.375" x2="-0.00321711" y2="10.38" gradientUnits="userSpaceOnUse">
<stop stop-color="#4A6AD4"/>
<stop offset="0.343709" stop-color="#B153C0"/>
<stop offset="0.690291" stop-color="#D6337D"/>
<stop offset="1" stop-color="#F6704D"/>
</linearGradient>
</defs>
</svg>
