<svg width="335" height="608" viewBox="0 0 335 608" fill="none" xmlns="http://www.w3.org/2000/svg">
<mask id="mask0" mask-type="alpha" maskUnits="userSpaceOnUse" x="0" y="0" width="335" height="608">
<rect width="335" height="608" rx="54" fill="#7B65FF"/>
</mask>
<g mask="url(#mask0)">
<path fill-rule="evenodd" clip-rule="evenodd" d="M98.5818 273.05L96.9908 274.641L100.173 277.823L96.9908 281.005L98.5818 282.596L101.764 279.414L104.946 282.596L101.764 285.778L103.355 287.369L106.537 284.187L109.719 287.369L111.31 285.778L108.128 282.596L111.31 279.414L114.492 282.596L116.083 281.005L112.901 277.823L116.083 274.641L114.492 273.05L111.31 276.232L108.128 273.05L111.31 269.868L109.719 268.277L106.537 271.459L103.355 268.277L101.764 269.868L104.946 273.05L101.764 276.232L98.5818 273.05ZM109.719 277.823L106.537 274.641L103.355 277.823L106.537 281.005L109.719 277.823Z" fill="#8B78FF"/>
<path fill-rule="evenodd" clip-rule="evenodd" d="M226.795 401.263L225.204 402.854L228.386 406.036L225.204 409.218L226.795 410.809L229.977 407.627L233.159 410.809L229.977 413.991L231.568 415.582L234.75 412.4L237.932 415.582L239.523 413.991L236.341 410.809L239.523 407.627L242.705 410.809L244.296 409.218L241.114 406.036L244.296 402.854L242.705 401.263L239.523 404.445L236.341 401.263L239.523 398.081L237.932 396.49L234.75 399.672L231.568 396.49L229.977 398.081L233.159 401.263L229.977 404.445L226.795 401.263ZM237.932 406.036L234.75 402.854L231.568 406.036L234.75 409.218L237.932 406.036Z" fill="#8B78FF"/>
<path fill-rule="evenodd" clip-rule="evenodd" d="M98.5818 401.263L96.9908 402.854L100.173 406.036L96.9908 409.218L98.5818 410.809L101.764 407.627L104.946 410.809L101.764 413.991L103.355 415.582L106.537 412.4L109.719 415.582L111.31 413.991L108.128 410.809L111.31 407.627L114.492 410.809L116.083 409.218L112.901 406.036L116.083 402.854L114.492 401.263L111.31 404.445L108.128 401.263L111.31 398.081L109.719 396.49L106.537 399.672L103.355 396.49L101.764 398.081L104.946 401.263L101.764 404.445L98.5818 401.263ZM109.719 406.036L106.537 402.854L103.355 406.036L106.537 409.218L109.719 406.036Z" fill="#8B78FF"/>
<path fill-rule="evenodd" clip-rule="evenodd" d="M226.795 16.6235L225.204 18.2145L228.386 21.3965L225.204 24.5785L226.795 26.1695L229.977 22.9875L233.159 26.1695L229.977 29.3514L231.568 30.9424L234.75 27.7604L237.932 30.9424L239.523 29.3514L236.341 26.1695L239.523 22.9875L242.705 26.1695L244.296 24.5785L241.114 21.3965L244.296 18.2145L242.705 16.6235L239.523 19.8055L236.341 16.6235L239.523 13.4415L237.932 11.8505L234.75 15.0325L231.568 11.8505L229.977 13.4415L233.159 16.6235L229.977 19.8055L226.795 16.6235ZM237.932 21.3965L234.75 18.2145L231.568 21.3965L234.75 24.5785L237.932 21.3965Z" fill="#8B78FF"/>
<path fill-rule="evenodd" clip-rule="evenodd" d="M226.795 529.476L225.204 531.067L228.386 534.249L225.204 537.431L226.795 539.022L229.977 535.84L233.159 539.022L229.977 542.204L231.568 543.795L234.75 540.613L237.932 543.795L239.523 542.204L236.341 539.022L239.523 535.84L242.705 539.022L244.296 537.431L241.114 534.249L244.296 531.067L242.705 529.476L239.523 532.658L236.341 529.476L239.523 526.294L237.932 524.703L234.75 527.885L231.568 524.703L229.977 526.294L233.159 529.476L229.977 532.658L226.795 529.476ZM237.932 534.249L234.75 531.067L231.568 534.249L234.75 537.431L237.932 534.249Z" fill="#8B78FF"/>
<path fill-rule="evenodd" clip-rule="evenodd" d="M226.795 144.837L225.204 146.428L228.386 149.61L225.204 152.792L226.795 154.383L229.977 151.201L233.159 154.383L229.977 157.565L231.568 159.156L234.75 155.974L237.932 159.156L239.523 157.565L236.341 154.383L239.523 151.201L242.705 154.383L244.296 152.792L241.114 149.61L244.296 146.428L242.705 144.837L239.523 148.019L236.341 144.837L239.523 141.655L237.932 140.064L234.75 143.246L231.568 140.064L229.977 141.655L233.159 144.837L229.977 148.019L226.795 144.837ZM237.932 149.61L234.75 146.428L231.568 149.61L234.75 152.792L237.932 149.61Z" fill="#8B78FF"/>
<path fill-rule="evenodd" clip-rule="evenodd" d="M98.5818 16.6235L96.9908 18.2145L100.173 21.3965L96.9908 24.5785L98.5818 26.1695L101.764 22.9875L104.946 26.1695L101.764 29.3514L103.355 30.9424L106.537 27.7604L109.719 30.9424L111.31 29.3514L108.128 26.1695L111.31 22.9875L114.492 26.1695L116.083 24.5785L112.901 21.3965L116.083 18.2145L114.492 16.6235L111.31 19.8055L108.128 16.6235L111.31 13.4415L109.719 11.8505L106.537 15.0325L103.355 11.8505L101.764 13.4415L104.946 16.6235L101.764 19.8055L98.5818 16.6235ZM109.719 21.3965L106.537 18.2145L103.355 21.3965L106.537 24.5785L109.719 21.3965Z" fill="#8B78FF"/>
<path fill-rule="evenodd" clip-rule="evenodd" d="M98.5818 529.476L96.9908 531.067L100.173 534.249L96.9908 537.431L98.5818 539.022L101.764 535.84L104.946 539.022L101.764 542.204L103.355 543.795L106.537 540.613L109.719 543.795L111.31 542.204L108.128 539.022L111.31 535.84L114.492 539.022L116.083 537.431L112.901 534.249L116.083 531.067L114.492 529.476L111.31 532.658L108.128 529.476L111.31 526.294L109.719 524.703L106.537 527.885L103.355 524.703L101.764 526.294L104.946 529.476L101.764 532.658L98.5818 529.476ZM109.719 534.249L106.537 531.067L103.355 534.249L106.537 537.431L109.719 534.249Z" fill="#8B78FF"/>
<path fill-rule="evenodd" clip-rule="evenodd" d="M226.795 273.05L225.204 274.641L228.386 277.823L225.204 281.005L226.795 282.596L229.977 279.414L233.159 282.596L229.977 285.778L231.568 287.369L234.75 284.187L237.932 287.369L239.523 285.778L236.341 282.596L239.523 279.414L242.705 282.596L244.296 281.005L241.114 277.823L244.296 274.641L242.705 273.05L239.523 276.232L236.341 273.05L239.523 269.868L237.932 268.277L234.75 271.459L231.568 268.277L229.977 269.868L233.159 273.05L229.977 276.232L226.795 273.05ZM237.932 277.823L234.75 274.641L231.568 277.823L234.75 281.005L237.932 277.823Z" fill="#8B78FF"/>
<path fill-rule="evenodd" clip-rule="evenodd" d="M98.5818 144.837L96.9908 146.428L100.173 149.61L96.9908 152.792L98.5818 154.383L101.764 151.201L104.946 154.383L101.764 157.565L103.355 159.156L106.537 155.974L109.719 159.156L111.31 157.565L108.128 154.383L111.31 151.201L114.492 154.383L116.083 152.792L112.901 149.61L116.083 146.428L114.492 144.837L111.31 148.019L108.128 144.837L111.31 141.655L109.719 140.064L106.537 143.246L103.355 140.064L101.764 141.655L104.946 144.837L101.764 148.019L98.5818 144.837ZM109.719 149.61L106.537 146.428L103.355 149.61L106.537 152.792L109.719 149.61Z" fill="#8B78FF"/>
<path fill-rule="evenodd" clip-rule="evenodd" d="M292.719 596.039C292.554 593.986 293.299 591.837 294.807 590.33C297.475 587.661 301.668 587.661 304.336 590.33C307.608 593.602 307.334 599.209 306.918 607.704L306.917 607.725L306.805 610.125L304.414 610.246L304.349 610.249C295.869 610.655 290.276 610.922 287.01 607.656C284.342 604.988 284.342 600.795 287.01 598.126C288.517 596.619 290.666 595.874 292.719 596.039ZM304.466 607.786L304.466 607.612C304.856 599.755 305.107 594.566 302.603 592.062C300.871 590.33 298.272 590.33 296.539 592.062C295.205 593.396 294.763 595.554 295.5 597.191L293.88 598.811C292.234 598.083 290.076 598.525 288.742 599.859C287.01 601.592 287.01 604.191 288.742 605.923C291.246 608.427 296.435 608.176 304.293 607.786L304.466 607.786Z" fill="#8B78FF"/>
<path fill-rule="evenodd" clip-rule="evenodd" d="M292.719 83.1859C292.554 81.1327 293.299 78.9843 294.807 77.4769C297.475 74.8087 301.668 74.8087 304.336 77.4769C307.608 80.7489 307.334 86.356 306.918 94.8514L306.917 94.8723L306.805 97.272L304.414 97.3933L304.349 97.3964C295.869 97.8018 290.276 98.0693 287.01 94.803C284.342 92.1348 284.342 87.9419 287.01 85.2737C288.517 83.7663 290.666 83.0213 292.719 83.1859ZM304.466 94.9329L304.466 94.7597C304.856 86.9023 305.107 81.7131 302.603 79.2095C300.871 77.4769 298.272 77.4769 296.539 79.2095C295.205 80.5436 294.763 82.7007 295.5 84.338L293.88 85.958C292.234 85.2303 290.076 85.6722 288.742 87.0063C287.01 88.7389 287.01 91.3378 288.742 93.0704C291.246 95.574 296.435 95.3228 304.293 94.933L304.466 94.9329Z" fill="#8B78FF"/>
<path fill-rule="evenodd" clip-rule="evenodd" d="M36.2925 339.612C36.1279 337.559 36.8729 335.411 38.3803 333.903C41.0485 331.235 45.2414 331.235 47.9096 333.903C51.1815 337.175 50.9075 342.782 50.4922 351.278L50.4912 351.299L50.3786 353.698L47.9876 353.82L47.9223 353.823C39.4431 354.228 33.8498 354.496 30.5835 351.229C27.9153 348.561 27.9153 344.368 30.5835 341.7C32.0909 340.193 34.2393 339.448 36.2925 339.612ZM48.0395 351.359L48.0395 351.186C48.4294 343.329 48.6806 338.139 46.177 335.636C44.4444 333.903 41.8455 333.903 40.1129 335.636C38.7787 336.97 38.3369 339.127 39.0733 340.764L37.4533 342.384C35.8073 341.657 33.6502 342.098 32.3161 343.433C30.5835 345.165 30.5835 347.764 32.3161 349.497C34.8197 352 40.0089 351.749 47.8663 351.359L48.0395 351.359Z" fill="#8B78FF"/>
<path fill-rule="evenodd" clip-rule="evenodd" d="M164.506 467.826C164.341 465.773 165.086 463.624 166.593 462.117C169.262 459.449 173.455 459.449 176.123 462.117C179.395 465.389 179.121 470.996 178.705 479.491L178.704 479.512L178.592 481.912L176.201 482.033L176.135 482.036C167.656 482.442 162.063 482.709 158.797 479.443C156.128 476.775 156.128 472.582 158.797 469.914C160.304 468.406 162.452 467.661 164.506 467.826ZM176.253 479.573L176.253 479.4C176.642 471.542 176.894 466.353 174.39 463.849C172.657 462.117 170.059 462.117 168.326 463.849C166.992 465.184 166.55 467.341 167.286 468.978L165.666 470.598C164.02 469.87 161.863 470.312 160.529 471.646C158.797 473.379 158.797 475.978 160.529 477.71C163.033 480.214 168.222 479.963 176.079 479.573L176.253 479.573Z" fill="#8B78FF"/>
<path fill-rule="evenodd" clip-rule="evenodd" d="M164.506 211.399C164.341 209.346 165.086 207.197 166.593 205.69C169.262 203.022 173.455 203.022 176.123 205.69C179.395 208.962 179.121 214.569 178.705 223.065L178.704 223.085L178.592 225.485L176.201 225.606L176.135 225.61C167.656 226.015 162.063 226.282 158.797 223.016C156.128 220.348 156.128 216.155 158.797 213.487C160.304 211.979 162.452 211.234 164.506 211.399ZM176.253 223.146L176.253 222.973C176.642 215.115 176.894 209.926 174.39 207.423C172.657 205.69 170.059 205.69 168.326 207.423C166.992 208.757 166.55 210.914 167.286 212.551L165.666 214.171C164.02 213.443 161.863 213.885 160.529 215.219C158.797 216.952 158.797 219.551 160.529 221.284C163.033 223.787 168.222 223.536 176.079 223.146L176.253 223.146Z" fill="#8B78FF"/>
<path fill-rule="evenodd" clip-rule="evenodd" d="M36.2925 83.1859C36.1279 81.1327 36.8729 78.9843 38.3803 77.4769C41.0485 74.8087 45.2414 74.8087 47.9096 77.4769C51.1815 80.7489 50.9075 86.356 50.4922 94.8514L50.4912 94.8723L50.3786 97.272L47.9876 97.3933L47.9223 97.3964C39.4431 97.8018 33.8498 98.0693 30.5835 94.803C27.9153 92.1348 27.9153 87.9419 30.5835 85.2737C32.0909 83.7663 34.2393 83.0213 36.2925 83.1859ZM48.0395 94.9329L48.0395 94.7597C48.4294 86.9023 48.6806 81.7131 46.177 79.2095C44.4444 77.4769 41.8455 77.4769 40.1129 79.2095C38.7787 80.5436 38.3369 82.7007 39.0733 84.338L37.4533 85.958C35.8073 85.2303 33.6502 85.6722 32.3161 87.0063C30.5835 88.7389 30.5835 91.3378 32.3161 93.0704C34.8197 95.574 40.0089 95.3228 47.8663 94.933L48.0395 94.9329Z" fill="#8B78FF"/>
<path fill-rule="evenodd" clip-rule="evenodd" d="M36.2925 596.039C36.1279 593.986 36.8729 591.837 38.3803 590.33C41.0485 587.661 45.2414 587.661 47.9096 590.33C51.1815 593.602 50.9075 599.209 50.4922 607.704L50.4912 607.725L50.3786 610.125L47.9876 610.246L47.9223 610.249C39.4431 610.655 33.8498 610.922 30.5835 607.656C27.9153 604.988 27.9153 600.795 30.5835 598.126C32.0909 596.619 34.2393 595.874 36.2925 596.039ZM48.0395 607.786L48.0395 607.612C48.4294 599.755 48.6806 594.566 46.177 592.062C44.4444 590.33 41.8455 590.33 40.1129 592.062C38.7787 593.396 38.3369 595.554 39.0733 597.191L37.4533 598.811C35.8073 598.083 33.6502 598.525 32.3161 599.859C30.5835 601.592 30.5835 604.191 32.3161 605.923C34.8197 608.427 40.0089 608.176 47.8663 607.786L48.0395 607.786Z" fill="#8B78FF"/>
<path fill-rule="evenodd" clip-rule="evenodd" d="M292.719 339.612C292.554 337.559 293.299 335.411 294.807 333.903C297.475 331.235 301.668 331.235 304.336 333.903C307.608 337.175 307.334 342.782 306.918 351.278L306.917 351.299L306.805 353.698L304.414 353.82L304.349 353.823C295.869 354.228 290.276 354.496 287.01 351.229C284.342 348.561 284.342 344.368 287.01 341.7C288.517 340.193 290.666 339.448 292.719 339.612ZM304.466 351.359L304.466 351.186C304.856 343.329 305.107 338.139 302.603 335.636C300.871 333.903 298.272 333.903 296.539 335.636C295.205 336.97 294.763 339.127 295.5 340.764L293.88 342.384C292.234 341.657 290.076 342.098 288.742 343.433C287.01 345.165 287.01 347.764 288.742 349.497C291.246 352 296.435 351.749 304.293 351.359L304.466 351.359Z" fill="#8B78FF"/>
<path fill-rule="evenodd" clip-rule="evenodd" d="M164.506 339.612C164.341 337.559 165.086 335.411 166.593 333.903C169.262 331.235 173.455 331.235 176.123 333.903C179.395 337.175 179.121 342.782 178.705 351.278L178.704 351.299L178.592 353.698L176.201 353.82L176.135 353.823C167.656 354.228 162.063 354.496 158.797 351.229C156.128 348.561 156.128 344.368 158.797 341.7C160.304 340.193 162.452 339.448 164.506 339.612ZM176.253 351.359L176.253 351.186C176.642 343.329 176.894 338.139 174.39 335.636C172.657 333.903 170.059 333.903 168.326 335.636C166.992 336.97 166.55 339.127 167.286 340.764L165.666 342.384C164.02 341.657 161.863 342.098 160.529 343.433C158.797 345.165 158.797 347.764 160.529 349.497C163.033 352 168.222 351.749 176.079 351.359L176.253 351.359Z" fill="#8B78FF"/>
<path fill-rule="evenodd" clip-rule="evenodd" d="M36.2925 211.399C36.1279 209.346 36.8729 207.197 38.3803 205.69C41.0485 203.022 45.2414 203.022 47.9096 205.69C51.1815 208.962 50.9075 214.569 50.4922 223.065L50.4912 223.085L50.3786 225.485L47.9876 225.606L47.9223 225.61C39.4431 226.015 33.8498 226.282 30.5835 223.016C27.9153 220.348 27.9153 216.155 30.5835 213.487C32.0909 211.979 34.2393 211.234 36.2925 211.399ZM48.0395 223.146L48.0395 222.973C48.4294 215.115 48.6806 209.926 46.177 207.423C44.4444 205.69 41.8455 205.69 40.1129 207.423C38.7787 208.757 38.3369 210.914 39.0733 212.551L37.4533 214.171C35.8073 213.443 33.6502 213.885 32.3161 215.219C30.5835 216.952 30.5835 219.551 32.3161 221.284C34.8197 223.787 40.0089 223.536 47.8663 223.146L48.0395 223.146Z" fill="#8B78FF"/>
<path fill-rule="evenodd" clip-rule="evenodd" d="M292.719 467.826C292.554 465.773 293.299 463.624 294.807 462.117C297.475 459.449 301.668 459.449 304.336 462.117C307.608 465.389 307.334 470.996 306.918 479.491L306.917 479.512L306.805 481.912L304.414 482.033L304.349 482.036C295.869 482.442 290.276 482.709 287.01 479.443C284.342 476.775 284.342 472.582 287.01 469.914C288.517 468.406 290.666 467.661 292.719 467.826ZM304.466 479.573L304.466 479.4C304.856 471.542 305.107 466.353 302.603 463.849C300.871 462.117 298.272 462.117 296.539 463.849C295.205 465.184 294.763 467.341 295.5 468.978L293.88 470.598C292.234 469.87 290.076 470.312 288.742 471.646C287.01 473.379 287.01 475.978 288.742 477.71C291.246 480.214 296.435 479.963 304.293 479.573L304.466 479.573Z" fill="#8B78FF"/>
<path fill-rule="evenodd" clip-rule="evenodd" d="M36.2925 467.825C36.1279 465.772 36.8729 463.624 38.3803 462.116C41.0485 459.448 45.2414 459.448 47.9096 462.116C51.1815 465.388 50.9075 470.995 50.4922 479.491L50.4912 479.512L50.3786 481.911L47.9876 482.033L47.9223 482.036C39.4431 482.441 33.8498 482.709 30.5835 479.442C27.9153 476.774 27.9153 472.581 30.5835 469.913C32.0909 468.406 34.2393 467.661 36.2925 467.825ZM48.0395 479.572L48.0395 479.399C48.4294 471.542 48.6806 466.353 46.177 463.849C44.4444 462.116 41.8455 462.116 40.1129 463.849C38.7787 465.183 38.3369 467.34 39.0733 468.977L37.4533 470.597C35.8073 469.87 33.6502 470.312 32.3161 471.646C30.5835 473.378 30.5835 475.977 32.3161 477.71C34.8197 480.213 40.0089 479.962 47.8663 479.572L48.0395 479.572Z" fill="#8B78FF"/>
<path fill-rule="evenodd" clip-rule="evenodd" d="M292.719 211.399C292.554 209.346 293.299 207.197 294.807 205.69C297.475 203.022 301.668 203.022 304.336 205.69C307.608 208.962 307.334 214.569 306.918 223.065L306.917 223.085L306.805 225.485L304.414 225.606L304.349 225.61C295.869 226.015 290.276 226.282 287.01 223.016C284.342 220.348 284.342 216.155 287.01 213.487C288.517 211.979 290.666 211.234 292.719 211.399ZM304.466 223.146L304.466 222.973C304.856 215.115 305.107 209.926 302.603 207.423C300.871 205.69 298.272 205.69 296.539 207.423C295.205 208.757 294.763 210.914 295.5 212.551L293.88 214.171C292.234 213.443 290.076 213.885 288.742 215.219C287.01 216.952 287.01 219.551 288.742 221.284C291.246 223.787 296.435 223.536 304.293 223.146L304.466 223.146Z" fill="#8B78FF"/>
<path fill-rule="evenodd" clip-rule="evenodd" d="M164.506 83.1859C164.341 81.1327 165.086 78.9843 166.593 77.4769C169.262 74.8087 173.455 74.8087 176.123 77.4769C179.395 80.7489 179.121 86.356 178.705 94.8514L178.704 94.8723L178.592 97.272L176.201 97.3933L176.135 97.3964C167.656 97.8018 162.063 98.0693 158.797 94.803C156.128 92.1348 156.128 87.9419 158.797 85.2737C160.304 83.7663 162.452 83.0213 164.506 83.1859ZM176.253 94.9329L176.253 94.7597C176.642 86.9023 176.894 81.7131 174.39 79.2095C172.657 77.4769 170.059 77.4769 168.326 79.2095C166.992 80.5436 166.55 82.7007 167.286 84.338L165.666 85.958C164.02 85.2303 161.863 85.6722 160.529 87.0063C158.797 88.7389 158.797 91.3378 160.529 93.0704C163.033 95.574 168.222 95.3228 176.079 94.933L176.253 94.9329Z" fill="#8B78FF"/>
<path fill-rule="evenodd" clip-rule="evenodd" d="M164.506 596.039C164.341 593.986 165.086 591.837 166.593 590.33C169.262 587.661 173.455 587.661 176.123 590.33C179.395 593.602 179.121 599.209 178.705 607.704L178.704 607.725L178.592 610.125L176.201 610.246L176.135 610.249C167.656 610.655 162.063 610.922 158.797 607.656C156.128 604.988 156.128 600.795 158.797 598.126C160.304 596.619 162.452 595.874 164.506 596.039ZM176.253 607.786L176.253 607.612C176.642 599.755 176.894 594.566 174.39 592.062C172.657 590.33 170.059 590.33 168.326 592.062C166.992 593.396 166.55 595.554 167.286 597.191L165.666 598.811C164.02 598.083 161.863 598.525 160.529 599.859C158.797 601.592 158.797 604.191 160.529 605.923C163.033 608.427 168.222 608.176 176.079 607.786L176.253 607.786Z" fill="#8B78FF"/>
</g>
</svg>
